<svg xmlns="http://www.w3.org/2000/svg" xmlns:xlink="http://www.w3.org/1999/xlink" id="Capa_1" x="0px" y="0px" viewBox="0 0 168.61 68.06" style="enable-background:new 0 0 168.61 68.06;" xml:space="preserve">
<style type="text/css">
	.st0{fill-rule:evenodd;clip-rule:evenodd;fill:#E20917;}
	.st1{fill:#E20917;}
</style>
<g>
	<path id="XMLID_3160_" class="st0" d="M33.09,2.97c5.66,0.01,10.92,1.49,15.49,4.06l-0.01,7.9c-4.26-3.36-9.62-5.34-15.49-5.34   c-12.51-0.01-23.05,9.26-24.94,21.3h2.18c1.9-10.96,11.54-19.34,23.05-19.33c6.56,0.01,12.52,2.68,16.78,7.03l0.01-15.8l6.55,0.01   l-0.03,30.8v0.99c-0.01,12.73-10.44,23.09-23.36,23.08c-2.09,0-4.17-0.3-6.15-0.89l0.01-6.51c1.88,0.69,3.97,1.09,6.15,1.09   c9.33,0,16.99-7.49,17-16.78c0.01-9.18-7.63-16.69-16.97-16.69c-9.33-0.01-16.98,7.49-16.99,16.67c0,1.18,0.19,2.27,0.39,3.35   l-0.01,12.83c-3.36-3.36-5.65-7.7-6.44-12.54H8.03c0.8,6.32,4.07,11.95,8.63,15.91l-0.01,8.19C7.42,56.65,1.18,46.48,1.19,34.83   C1.21,17.26,15.52,2.96,33.09,2.97 M18.67,35.24L18.67,35.24v-0.4c0.01-8.09,6.66-14.7,14.8-14.69c8.25,0,14.89,6.62,14.89,14.72   c-0.01,7.99-6.66,14.6-14.91,14.6c-3.08-0.01-5.96-1-8.34-2.58l-0.01,20.63l-6.55,0L18.67,35.24z M25.02,35.24L25.02,35.24   l0.06,0.59c0.49,4.16,4.1,7.32,8.38,7.32C38.12,43.15,42,39.4,42,34.86c0-4.64-3.87-8.4-8.53-8.4c-4.57,0-8.45,3.75-8.45,8.38   V35.24z M58.31,2.79l7.25,0.01l-0.05,64.67l-7.25,0l0.01-12.94c-5.86,7.5-15,12.32-25.23,12.32c-1.99,0-3.98-0.2-5.86-0.6   l0.01-6.81c1.88,0.5,3.87,0.69,5.86,0.69c13.1,0.01,23.94-10.06,25.24-22.78L58.31,2.79z"></path>
	<path id="XMLID_3009_" class="st1" d="M77.82,4.16l-5.27-0.01v3h4.66v1.19h-4.67v4.35l-1.21,0l0.01-9.75h6.48V4.16z M89.27,8.67   l-0.01,1.34c-0.15,0.45-0.29,0.9-0.45,1.35c-0.3,0.44-0.61,0.74-1.21,1.05c-0.45,0.3-1.2,0.45-2.1,0.45   c-0.92,0-1.67-0.16-2.12-0.45c-0.61-0.14-0.91-0.6-1.21-0.91c-0.29-0.44-0.45-0.89-0.44-1.34c-0.15-0.45-0.15-1.04-0.15-1.5V2.96   l1.36,0.01v5.54c-0.01,0.6,0,1.19,0.15,1.64c-0.01,0.31,0.3,0.75,0.6,1.05c0.31,0.3,0.9,0.44,1.66,0.44c0.76,0,1.35-0.14,1.81-0.29   c0.29-0.3,0.6-0.6,0.75-1.05c0-0.44,0.15-1.04,0.15-1.8l0.01-5.54h1.2V8.67z M101.16,12.71h-1.35l-5.12-7.63l-0.01,7.63l-1.2-0.01   l0.01-9.73h1.35l5.11,7.64l0.01-7.64l1.21,0L101.16,12.71z M105.39,2.98l3.32,0c0.59,0,1.2,0,1.5,0.16c0.45-0.01,0.9,0.15,1.36,0.3   c0.3,0.29,0.61,0.6,0.9,1.05c0.3,0.44,0.59,0.89,0.76,1.34c0.15,0.6,0.29,1.2,0.29,1.94c0.01,1.51-0.46,2.7-1.06,3.6   c-0.75,0.9-1.95,1.35-3.61,1.35h-3.47L105.39,2.98z M106.58,11.53l2.11-0.01l1.21,0.01c0.3-0.15,0.61-0.3,1.05-0.45   c0.31-0.31,0.61-0.61,0.76-1.2c0.3-0.45,0.46-1.19,0.46-2.1c0-0.44-0.15-0.89-0.16-1.34c-0.15-0.46-0.3-0.9-0.44-1.2   c-0.31-0.3-0.61-0.6-0.91-0.75c-0.29-0.15-0.59-0.31-0.9-0.32l-1.05,0.01l-2.12-0.01V11.53z M125.26,12.73l-1.51,0l-1.05-3h-4.06   l-1.22,3l-1.36,0L119.86,3h1.35L125.26,12.73z M122.26,8.69c-0.75-2.1-1.21-3.29-1.35-3.6c-0.15-0.14-0.16-0.6-0.31-1.05   c-0.15,0.61-0.3,1.2-0.61,1.8l-1.06,2.85H122.26z M136.57,9.6c-0.3,1.2-0.76,1.94-1.51,2.55c-0.75,0.45-1.51,0.75-2.57,0.75   c-1.5,0-2.71-0.46-3.45-1.51c-0.76-1.05-1.06-2.24-1.06-3.6c0-1.49,0.45-2.69,1.2-3.59c0.91-0.9,1.97-1.34,3.33-1.34   c1.05,0,1.8,0.15,2.55,0.75c0.6,0.44,1.06,1.19,1.36,2.09L135.21,6c-0.29-0.74-0.6-1.2-1.05-1.49c-0.44-0.46-0.9-0.62-1.66-0.61   c-1.05-0.01-1.8,0.45-2.41,1.05c-0.6,0.74-0.75,1.64-0.75,2.84c-0.01,1.35,0.3,2.4,0.75,2.99c0.6,0.75,1.35,1.05,2.41,1.06   c0.75,0,1.35-0.31,1.8-0.61c0.45-0.44,0.75-1.04,1.04-1.95L136.57,9.6z M141.69,12.75l-1.35-0.01l0.01-9.73l1.35-0.01L141.69,12.75   z M150.29,2.87c1.35,0,2.4,0.45,3.29,1.35c0.91,0.91,1.35,2.1,1.36,3.76c0,1.49-0.46,2.69-1.36,3.58c-0.91,0.9-1.96,1.36-3.31,1.36   c-1.51,0-2.56-0.46-3.47-1.35c-0.91-1.05-1.2-2.25-1.19-3.6c-0.01-1.5,0.44-2.83,1.19-3.74C147.71,3.32,148.92,2.87,150.29,2.87    M150.27,11.87c0.9-0.01,1.8-0.45,2.4-1.06c0.61-0.74,0.91-1.64,0.91-2.83c0-1.36-0.3-2.26-0.89-3.01   c-0.76-0.6-1.52-1.05-2.41-1.06c-1.06,0-1.82,0.31-2.41,1.05c-0.61,0.6-0.91,1.64-0.91,2.99c0,1.2,0.3,2.11,0.9,2.85   C148.47,11.42,149.21,11.87,150.27,11.87 M151.94,0.48l-1.51,1.94h-0.91l0.91-1.94H151.94z M166.24,12.76h-1.21l-5.12-7.63v7.63   h-1.36l0.01-9.74h1.35l5.11,7.65l0.01-7.65l1.2,0.01L166.24,12.76z M79.3,30.97H77.8l-1.05-2.99l-4.07,0l-1.21,2.99h-1.36   l3.77-9.72l1.51,0L79.3,30.97z M76.3,26.92c-0.75-2.1-1.2-3.3-1.36-3.59c-0.15-0.3-0.17-0.59-0.31-1.05c-0.15,0.59-0.3,1.2-0.6,1.8   l-1.07,2.85L76.3,26.92z M92.26,27.83c-0.3,1.05-0.76,1.96-1.51,2.55c-0.6,0.45-1.51,0.75-2.42,0.74c-1.65,0-2.85-0.45-3.61-1.5   c-0.75-1.06-1.04-2.25-1.05-3.6c0-1.64,0.45-2.84,1.36-3.74c0.75-0.75,1.95-1.19,3.32-1.19c0.89,0,1.66,0.14,2.4,0.6   c0.6,0.6,1.05,1.19,1.35,2.25l-1.2,0.3c-0.31-0.75-0.6-1.2-1.06-1.65c-0.45-0.29-0.89-0.44-1.49-0.45c-1.21,0-1.97,0.3-2.57,1.04   c-0.45,0.75-0.76,1.65-0.75,2.84c0,1.36,0.3,2.4,0.9,3.01c0.6,0.59,1.35,1.05,2.26,1.04c0.75,0,1.35-0.3,1.81-0.74   c0.45-0.3,0.9-0.9,1.05-1.8L92.26,27.83z M105.67,30.99h-1.5l-1.06-3l-4.07-0.01l-1.2,3l-1.36,0.01l3.78-9.73h1.51L105.67,30.99z    M102.66,26.94c-0.75-2.09-1.2-3.29-1.36-3.59c-0.15-0.29-0.14-0.59-0.3-1.04c-0.14,0.6-0.3,1.19-0.6,1.79l-1.06,2.84H102.66z    M110.5,21.26h3.32h1.49c0.45,0.15,0.91,0.31,1.2,0.45c0.46,0.3,0.76,0.6,1.06,1.05c0.3,0.31,0.6,0.9,0.75,1.35   c0.15,0.6,0.15,1.2,0.15,1.94c-0.01,1.5-0.31,2.55-0.91,3.6c-0.75,0.9-1.97,1.34-3.62,1.34h-3.46V21.26z M111.69,29.8l2.11-0.01   l1.2,0.01c0.3-0.15,0.61-0.3,1.05-0.44c0.32-0.31,0.6-0.61,0.76-1.21c0.3-0.59,0.3-1.19,0.31-2.1v-1.34c-0.16-0.46-0.3-0.9-0.6-1.2   c-0.15-0.29-0.46-0.61-0.76-0.74c-0.3-0.15-0.61-0.31-0.91-0.31c-0.29,0.01-0.6-0.14-1.04-0.14l-2.11,0L111.69,29.8z M131.27,31.01   h-7.23l0.02-9.73l7.07,0v1.05l-5.87-0.01l0,2.99l5.42,0l0,1.2l-5.43,0v3.28l6.03,0.01L131.27,31.01z M146.04,31.01l-1.21,0.01   l0-8.24l-2.87,8.22l-1.2,0.01l-2.72-8.39h-0.14l-0.01,8.38l-1.2,0.01l0.01-9.74l1.97,0l2.4,6.88c0.14,0.76,0.31,1.21,0.44,1.35   c0.01-0.3,0.3-0.89,0.45-1.49l2.42-6.73l1.66,0L146.04,31.01z M153.27,31.03l-1.21,0l0.01-9.74l1.21,0L153.27,31.03z M167.42,31.04   h-1.49l-1.21-2.99h-4.06l-1.06,2.99h-1.37l3.78-9.72h1.36L167.42,31.04z M164.43,26.99c-0.76-2.09-1.21-3.3-1.35-3.6   c-0.15-0.3-0.3-0.59-0.3-1.05l-0.15,0c0,0.59-0.3,1.2-0.44,1.8l-1.07,2.84H164.43z M71.31,39.5h3.31l1.51,0   c0.46,0.15,0.9,0.15,1.21,0.44c0.45,0.31,0.75,0.6,1.05,0.9c0.3,0.45,0.59,0.9,0.75,1.5c0.15,0.45,0.15,1.19,0.14,1.95   c0,1.35-0.3,2.54-0.9,3.44c-0.76,0.9-1.96,1.5-3.62,1.5H71.3L71.31,39.5z M72.51,48.04l2.11,0.01c0.46,0,0.91-0.01,1.2-0.15   c0.31,0,0.61-0.15,1.06-0.46c0.3-0.13,0.61-0.58,0.75-1.04c0.31-0.61,0.31-1.35,0.31-2.09l0-1.5c-0.16-0.3-0.31-0.75-0.61-1.04   c-0.15-0.46-0.44-0.61-0.76-0.76c-0.29-0.29-0.6-0.29-0.9-0.28c-0.29-0.17-0.61-0.16-1.05-0.16l-2.1-0.01L72.51,48.04z    M90.73,49.26l-7.22-0.01v-9.74l7.08,0v1.06l-5.72-0.01l0,3h5.28l-0.01,1.21l-5.26-0.01l-0.01,3.29l5.88,0.01L90.73,49.26z    M106.42,39.53l3.32,0.01l1.65,0c0.31,0.15,0.75,0.16,1.21,0.45c0.29,0.31,0.76,0.61,1.05,0.9c0.15,0.45,0.45,0.9,0.61,1.5   c0.14,0.44,0.3,1.2,0.3,1.94c0,1.35-0.46,2.55-1.06,3.44c-0.75,0.91-1.81,1.51-3.62,1.51l-3.46-0.01L106.42,39.53z M107.77,48.07   l2.1-0.01c0.3,0.01,0.75,0.01,1.05-0.15c0.3,0.01,0.75-0.15,1.06-0.45c0.3-0.14,0.6-0.59,0.9-1.03c0.15-0.61,0.3-1.35,0.31-2.11   c0-0.6,0-1.05-0.15-1.49c-0.15-0.31-0.3-0.76-0.45-1.05c-0.31-0.45-0.61-0.6-0.9-0.76c-0.31-0.3-0.46-0.3-0.75-0.3   c-0.3-0.15-0.76-0.15-1.2-0.15h-1.96V48.07z M120.11,49.27h-1.36l0.02-9.74h1.35L120.11,49.27z M130.36,44.05   c0.61,0.14,1.06,0.44,1.36,0.88c0.3,0.46,0.44,0.9,0.44,1.51c0,0.45-0.14,1.05-0.45,1.5c-0.3,0.45-0.6,0.75-1.2,0.89   c-0.46,0.29-1.05,0.45-1.96,0.45h-3.77l0.01-9.74l3.63,0c1.19,0,2.1,0.15,2.56,0.75c0.44,0.45,0.74,1.05,0.74,1.66   c0,0.44-0.15,0.89-0.3,1.19C131.11,43.44,130.82,43.74,130.36,44.05 M126.14,43.59l2.11,0c0.46,0,0.76,0,1.05-0.15   c0.31,0,0.61-0.15,0.76-0.3c0.3-0.3,0.3-0.6,0.3-1.05c0-0.44,0.01-0.75-0.3-1.04c-0.15-0.15-0.45-0.3-0.76-0.3   c-0.3-0.15-0.76-0.15-1.2-0.15h-1.95L126.14,43.59z M126.13,48.08l2.42,0.01c0.76-0.01,1.36-0.15,1.81-0.45   c0.29-0.29,0.45-0.74,0.45-1.19c0-0.6-0.15-1.04-0.45-1.35c-0.46-0.3-1.05-0.45-1.95-0.45h-2.25L126.13,48.08z M144.07,45.1   c-0.01,0.46-0.01,1.05-0.15,1.34c0,0.46-0.15,0.91-0.45,1.35c-0.15,0.45-0.61,0.9-1.05,1.2c-0.61,0.3-1.37,0.45-2.26,0.45   c-0.76,0-1.51-0.15-2.11-0.46c-0.45-0.29-0.9-0.59-1.04-1.04c-0.31-0.46-0.46-0.9-0.61-1.35v-1.5l0.01-5.54h1.2l0,5.54   c0,0.61,0.15,1.05,0.15,1.5c0.14,0.45,0.3,0.75,0.75,1.2c0.31,0.3,0.9,0.45,1.66,0.45c0.76,0,1.36-0.16,1.66-0.45   c0.45-0.16,0.61-0.6,0.75-1.05c0.15-0.44,0.15-0.89,0.16-1.64v-5.54l1.36,0.01V45.1z M153.26,46.16c0,1.19-0.3,1.94-0.75,2.55   c-0.45,0.44-1.06,0.75-1.96,0.75c-0.9,0-1.51-0.3-1.95-0.75c-0.46-0.45-0.75-1.2-0.75-2.25l1.21-0.15c0,0.6,0.14,1.2,0.45,1.5   c0.15,0.3,0.6,0.46,1.05,0.46c0.46-0.01,0.75-0.16,0.9-0.31c0.31-0.3,0.46-0.45,0.46-0.75l0.01-1.05v-6.6l1.35,0L153.26,46.16z    M162.16,39.28c1.36,0,2.4,0.44,3.31,1.5c0.9,0.91,1.36,2.1,1.36,3.6c0,1.49-0.47,2.7-1.36,3.59c-0.91,1.05-1.96,1.5-3.32,1.49   c-1.51,0-2.55-0.45-3.46-1.51c-0.9-0.9-1.36-2.08-1.35-3.44c0-1.64,0.45-2.85,1.36-3.73C159.59,39.72,160.65,39.28,162.16,39.28    M162,48.26c1.06,0,1.8-0.31,2.4-1.04c0.75-0.6,1.06-1.65,1.06-2.85c0-1.2-0.3-2.26-1.05-2.84c-0.61-0.76-1.36-1.07-2.26-1.07   c-1.06,0.01-1.82,0.31-2.42,0.9c-0.76,0.74-1.05,1.79-1.06,3.14c0,1.2,0.3,2.09,0.9,2.69C160.33,47.96,161.09,48.26,162,48.26    M71.15,57.63l3.77,0c0.6,0,1.05,0,1.5,0.14c0.45,0,0.76,0.16,1.2,0.46c0.31,0.14,0.6,0.6,0.75,0.9c0.15,0.45,0.31,0.89,0.31,1.34   c0,0.9-0.31,1.65-0.9,2.25c-0.61,0.45-1.5,0.75-2.72,0.75l-2.56,0v3.9l-1.35,0L71.15,57.63z M72.5,62.27l2.56,0.01   c1.51-0.01,2.27-0.6,2.26-1.8c0.01-0.3-0.15-0.74-0.31-1.05c-0.15-0.3-0.44-0.46-0.74-0.45c-0.3-0.15-0.75-0.15-1.21-0.15H72.5   L72.5,62.27z M88.92,67.38l-1.52-0.01c-1.05-1.49-1.65-2.4-1.79-2.84c-0.31-0.3-0.61-0.61-0.77-0.9c-0.29-0.15-0.59-0.3-0.75-0.45   h-0.91l-1.5-0.01l-0.01,4.19h-1.35l0.01-9.73h4.37c0.6,0,1.05,0.15,1.51,0.15c0.29,0.16,0.74,0.31,1.05,0.45   c0.3,0.3,0.45,0.61,0.61,0.9c0.3,0.46,0.31,0.75,0.29,1.21c0,0.75-0.3,1.34-0.75,1.79c-0.46,0.45-1.05,0.75-1.96,0.89   c0.61,0.31,1.2,0.9,1.81,1.8L88.92,67.38z M81.69,61.98l2.71,0c0.6,0,1.05,0,1.35-0.14c0.31-0.16,0.6-0.31,0.75-0.6   c0.3-0.3,0.31-0.6,0.31-0.9c0-0.46-0.16-0.74-0.44-1.05c-0.31-0.45-0.92-0.6-1.67-0.6l-3.01-0.01V61.98z M94.49,57.49   c1.36,0,2.42,0.45,3.32,1.35c0.9,1.04,1.35,2.25,1.35,3.75c0,1.5-0.45,2.7-1.36,3.59c-0.91,0.9-1.96,1.35-3.33,1.35   c-1.49,0-2.55-0.46-3.46-1.36c-0.75-0.89-1.2-2.1-1.2-3.43c0-1.66,0.46-2.85,1.21-3.91C91.94,57.94,93.14,57.49,94.49,57.49    M94.49,66.49c0.91,0,1.81-0.3,2.41-1.05c0.61-0.6,0.9-1.65,0.9-2.85c0-1.34-0.3-2.25-0.9-2.99c-0.75-0.61-1.5-0.9-2.41-0.91   c-1.05,0-1.8,0.3-2.41,0.9c-0.59,0.75-0.9,1.8-0.9,3.15c-0.01,1.04,0.31,1.95,0.91,2.69C92.69,66.18,93.43,66.48,94.49,66.49    M107.45,58.86h-5.28v2.99h4.52v1.2h-4.51l-0.01,4.34h-1.35l0.01-9.74h6.63L107.45,58.86z M116.48,67.39h-7.24l0.01-9.74l7.09,0.02   v1.19l-5.88-0.01l-0.01,3l5.42,0.01l0,1.19h-5.43v3.29h6.02V67.39z M124.02,60.52c0-0.61-0.15-1.05-0.6-1.35   c-0.45-0.31-0.9-0.45-1.66-0.46c-0.75,0-1.2,0.15-1.66,0.29c-0.45,0.31-0.6,0.6-0.6,1.21c0,0.29,0.15,0.75,0.45,0.9   c0.3,0.15,0.9,0.46,1.8,0.6c0.91,0.15,1.51,0.31,1.96,0.61c0.61,0.14,1.06,0.46,1.36,0.75c0.45,0.45,0.59,1.06,0.6,1.66   c0,0.89-0.3,1.49-1.05,2.09c-0.61,0.59-1.52,0.75-2.58,0.74c-1.35,0.01-2.4-0.3-3.16-0.9c-0.59-0.61-1.05-1.35-1.04-2.4l1.2,0   c0.14,0.76,0.45,1.35,0.9,1.66c0.6,0.44,1.21,0.59,1.96,0.59c0.75,0,1.36-0.15,1.81-0.46c0.45-0.3,0.61-0.75,0.61-1.19   c0-0.59-0.15-0.9-0.6-1.2c-0.45-0.3-1.21-0.45-2.41-0.75c-1.04-0.3-1.8-0.6-2.42-1.04c-0.45-0.3-0.59-0.9-0.59-1.65   c0-0.75,0.3-1.35,0.9-1.96c0.61-0.45,1.36-0.75,2.41-0.74c1.21,0,1.96,0.3,2.72,0.75c0.6,0.59,0.89,1.2,1.04,2.24L124.02,60.52z    M128.84,67.41h-1.22l0.02-9.74h1.2V67.41z M135.48,57.52c1.36,0,2.56,0.46,3.3,1.35c0.92,1.05,1.36,2.25,1.36,3.75   c0,1.49-0.45,2.7-1.36,3.6c-0.75,0.9-1.95,1.34-3.3,1.35c-1.37-0.01-2.58-0.46-3.48-1.37c-0.75-0.89-1.2-2.1-1.19-3.44   c-0.01-1.65,0.44-2.84,1.34-3.89C132.91,57.98,134.11,57.52,135.48,57.52 M135.48,66.52c1.04,0,1.8-0.31,2.39-1.05   c0.62-0.6,0.91-1.65,0.91-2.85c0-1.34-0.29-2.24-0.9-2.99c-0.6-0.6-1.51-0.9-2.41-0.91c-0.91,0-1.82,0.3-2.42,0.9   c-0.61,0.75-0.9,1.8-0.9,3.14c0,1.05,0.3,1.95,0.89,2.7C133.66,66.21,134.41,66.52,135.48,66.52 M149.48,67.43l-1.21-0.02   l-5.12-7.63l-0.01,7.63h-1.36l0.01-9.74l1.36,0.01l5.11,7.64l0.01-7.63h1.2L149.48,67.43z M159.72,67.43h-1.35l-1.21-2.85l-4.07,0   l-1.05,2.85h-1.36l3.77-9.73l1.36,0L159.72,67.43z M156.7,63.54c-0.75-2.1-1.19-3.31-1.35-3.6c0-0.29-0.16-0.74-0.3-1.19   c-0.15,0.59-0.3,1.34-0.44,1.79l-1.21,3H156.7z M166.94,67.44l-6.18-0.01l0.01-9.73l1.36-0.01v8.69l4.82,0L166.94,67.44z"></path>
</g>
</svg>